HIERARCHY
ROOT Hips
{
  OFFSET -35.2597 29.1586 114.425
  CHANNELS 6 Xposition Yposition Zposition Zrotation Xrotation Yrotation
  JOINT LeftUpLeg
  {
    OFFSET 8.64259 1.95398 -2.38835
    CHANNELS 3 Zrotation Xrotation Yrotation
    JOINT LeftLeg
    {
      OFFSET 43.7702 0 0
      CHANNELS 3 Zrotation Xrotation Yrotation
      JOINT LeftFoot
      {
        OFFSET 40.6238 0 0
        CHANNELS 3 Zrotation Xrotation Yrotation
        JOINT LeftToeBase
        {
          OFFSET 12.7242 0 0
          CHANNELS 3 Zrotation Xrotation Yrotation
          End Site
          {
            OFFSET 0 0 0
          }
        }
      }
    }
  }
  JOINT RightUpLeg
  {
    OFFSET -8.2249 1.95398 -2.59336
    CHANNELS 3 Zrotation Xrotation Yrotation
    JOINT RightLeg
    {
      OFFSET 43.5653 0 0
      CHANNELS 3 Zrotation Xrotation Yrotation
      JOINT RightFoot
      {
        OFFSET 40.6238 0 0
        CHANNELS 3 Zrotation Xrotation Yrotation
        JOINT RightToeBase
        {
          OFFSET 12.7242 0 0
          CHANNELS 3 Zrotation Xrotation Yrotation
          End Site
          {
            OFFSET 0 0 0
          }
        }
      }
    }
  }
  JOINT Spine
  {
    OFFSET 0.165834 0.87714 6.61349
    CHANNELS 3 Zrotation Xrotation Yrotation
    JOINT Spine1
    {
      OFFSET 7.38963 1.71661e-005 0
      CHANNELS 3 Zrotation Xrotation Yrotation
      JOINT Spine2
      {
        OFFSET 11.9445 1.14441e-005 0
        CHANNELS 3 Zrotation Xrotation Yrotation
        JOINT Spine3
        {
          OFFSET 14.7254 4.19617e-005 0
          CHANNELS 3 Zrotation Xrotation Yrotation
          JOINT Spine4
          {
            OFFSET 10.9679 0 0
            CHANNELS 3 Zrotation Xrotation Yrotation
            JOINT RightShoulder
            {
              OFFSET 2.46616 -1.6653 3.69651
              CHANNELS 3 Zrotation Xrotation Yrotation
              JOINT RightArm
              {
                OFFSET 13.0012 0 0
                CHANNELS 3 Zrotation Xrotation Yrotation
                JOINT RightForeArm
                {
                  OFFSET 28.7848 1.62311e-005 0
                  CHANNELS 3 Zrotation Xrotation Yrotation
                  JOINT RightHand
                  {
                    OFFSET 26.5688 1.62095e-005 0
                    CHANNELS 3 Zrotation Xrotation Yrotation
                    End Site
                    {
                      OFFSET 0 0 0
                    }
                  }
                }
              }
            }
            JOINT LeftShoulder
            {
              OFFSET 2.38034 -1.29275 -3.7523
              CHANNELS 3 Zrotation Xrotation Yrotation
              JOINT LeftArm
              {
                OFFSET 16.3182 6.07031e-005 0
                CHANNELS 3 Zrotation Xrotation Yrotation
                JOINT LeftForeArm
                {
                  OFFSET 27.0901 0 0
                  CHANNELS 3 Zrotation Xrotation Yrotation
                  JOINT LeftHand
                  {
                    OFFSET 24.5451 1.51738e-005 0
                    CHANNELS 3 Zrotation Xrotation Yrotation
                    End Site
                    {
                      OFFSET 0 0 0
                    }
                  }
                }
              }
            }
            JOINT Neck
            {
              OFFSET 5.0226 -0.0266342 0
              CHANNELS 3 Zrotation Xrotation Yrotation
              JOINT Head
              {
                OFFSET 6.69364 2.86102e-005 0
                CHANNELS 3 Zrotation Xrotation Yrotation
                End Site
                {
                  OFFSET 0 0 0
                }
              }
            }
          }
        }
      }
    }
  }
}
MOTION
Frames:	15
Frame Time:	0.0416667
-77.991 91.9612 -11.9756 86.8653 -15.3522 80.8368 -174.851 33.1784 77.8037 -45.0288 24.9577 -4.08197 71.5489 8.24526 4.98373 16.66 -2.73427 -5.63252 168.251 -8.46623 95.8353 -60.9706 -8.01774 5.48396 64.6479 -3.05283 -1.7064 16.2091 1.35195 9.81873 3.54554 8.6131 -88.2565 9.55243 7.85478 2.8573 -2.09703 7.97286 2.50697 -24.7528 6.63265 5.09255 -4.74015 6.63267 5.09255 90.4254 -16.7396 -112.082 16.5614 29.2788 18.7115 -75.906 -20.9816 -86.1302 -37.1915 15.92 -51.0233 -85.1183 -52.9344 86.4372 -3.49828 -28.419 31.9306 78.8767 35.332 -84.851 14.3978 -6.16084 -43.9326 22.6806 -28.9424 -17.2401 -2.60737 -22.4333 -8.80513 
-73.1871 90.971 -6.90517 86.9468 -16.9409 80.1196 -175.88 30.6296 78.4008 -51.4472 20.5632 -1.78678 80.9139 14.7611 2.88354 14.9048 -8.72049 2.09339 164.569 -0.177156 93.495 -78.0392 -1.40421 2.95562 66.5922 -5.20511 -3.7915 16.2771 0.803976 11.1044 3.10834 8.65231 -88.1233 9.46844 7.04226 3.19005 -2.18651 7.17574 2.87583 -24.8011 5.75847 5.16223 -4.78847 5.75846 5.16222 88.5624 -22.0817 -113.393 13.9255 29.7955 27.2193 -77.3402 -23.6038 -85.973 -39.1383 16.0497 -49.1044 -86.1386 -54.5828 85.1794 -6.6197 -29.4913 24.9155 78.2332 28.7155 -85.6985 12.6003 -6.03043 -47.4623 21.3713 -26.672 -17.5049 -1.04262 -20.4016 -9.99752 
-68.6852 90.1522 -1.84282 87.8814 -18.075 77.6559 -176.319 25.032 78.3723 -51.3443 18.7756 -1.1407 84.611 17.7207 1.8284 22.9454 -4.40941 2.58116 163.826 9.33489 90.2799 -92.962 -0.0527758 -0.566417 70.1864 -8.25705 -5.77904 13.7493 2.28052 9.67554 2.48945 8.95496 -87.8508 8.85169 5.92226 3.85701 -2.81071 6.08612 3.59221 -25.3689 4.49085 5.45797 -5.35623 4.49085 5.45798 87.6564 -25.3324 -113.61 13.6099 27.9316 36.6442 -76.6815 -24.7151 -85.3955 -39.7795 15.8493 -47.919 -86.3541 -55.1441 84.9502 -12.1079 -26.8071 12.7154 72.4672 25.1666 -83.6796 16.4122 -7.90231 -49.2862 23.3746 -24.5614 -15.5331 -1.00171 -18.6057 -12.7079 
-63.9822 89.3128 3.22205 88.0756 -19.0501 76.4282 -176.264 19.1173 79.8921 -50.0202 17.2327 -0.866125 89.6464 21.3196 -0.406138 26.6166 -3.4018 4.45164 167.107 19.7414 89.678 -104.587 -3.69981 -2.85225 74.4662 -11.6922 -7.10716 9.74532 3.60645 9.86761 1.83558 9.08121 -87.7123 8.60771 4.67547 4.22586 -3.06102 4.85675 4.01604 -25.5774 3.19134 5.43362 -5.56475 3.19135 5.43362 88.1794 -25.9434 -112.214 19.4766 21.6327 44.1166 -68.5188 -25.6506 -81.2289 -41.0179 15.7913 -46.4779 -86.0879 -52.0633 84.8957 -17.3151 -21.5467 2.37462 63.9688 19.037 -82.1392 18.0877 -8.34172 -47.9504 24.3946 -22.0564 -14.7821 -0.293551 -16.303 -13.5831 
-59.3717 89.013 8.42995 87.5193 -21.7533 78.2322 -174.142 12.6163 85.1242 -46.5409 16.2408 -0.83108 94.6382 23.5792 -4.51863 28.3237 -3.45014 6.41362 172.718 29.5647 91.329 -110.505 -5.33665 -3.72144 76.3419 -13.4412 -8.47544 11.6279 1.99474 11.931 1.37892 8.97288 -87.9816 8.85436 3.64887 3.74985 -2.81639 3.81024 3.58573 -25.3285 2.35456 4.67171 -5.31583 2.35457 4.6717 90.1187 -24.4361 -108.826 26.045 16.5251 53.3516 -71.3844 -23.3459 -83.4747 -38.2594 15.3221 -48.2336 -86.0091 -48.5842 84.5084 -19.0849 -19.3175 -8.75696 57.6885 15.1311 -81.6551 17.2772 -8.59404 -50.7925 24.5316 -18.5213 -13.271 -0.119406 -13.3351 -12.4608 
-54.5179 89.2091 13.6524 85.4541 -24.0265 79.4415 -172.033 7.04052 89.678 -40.6496 17.8154 -0.834504 93.28 23.9982 -3.12668 32.7362 -1.35996 7.3328 178.091 40.4111 91.4758 -111.384 -2.56993 -4.08844 78.3601 -14.6349 -8.67436 12.7543 1.12427 13.0308 0.760435 8.57327 -88.2008 9.68061 2.32902 3.38656 -1.99239 2.47573 3.28088 -24.498 1.20446 3.92918 -4.48531 1.20443 3.92916 91.4333 -23.6574 -106.304 31.7091 12.9949 61.2292 -75.9985 -23.5635 -85.4127 -39.7293 15.9254 -48.1447 -85.8249 -44.3317 84.1272 -19.5328 -20.1156 -13.3718 56.3896 8.86837 -85.289 21.6664 -10.5682 -50.9746 23.432 -14.3924 -13.1896 -0.739605 -9.41149 -10.702 
-49.2253 90.0678 19.4174 84.3597 -25.268 81.3612 -170.753 1.59138 94.1819 -34.4078 20.7506 0.0487892 86.6866 20.8944 -0.504121 38.2941 1.02544 9.21002 -178.175 48.0746 91.4405 -106.897 1.53378 -4.33196 81.645 -15.8935 -7.52578 11.2987 2.92536 10.1508 -0.125621 8.23857 -88.5055 10.3817 0.434192 2.93021 -1.29243 0.562668 2.90829 -23.8012 -0.466163 2.9253 -3.78857 -0.466141 2.92531 92.4207 -21.6071 -104.942 36.7865 10.8997 68.5286 -77.4635 -24.278 -85.8395 -41.9357 16.1858 -46.4984 -84.7935 -37.1355 84.6683 -19.9703 -23.9576 -13.801 54.1216 1.74345 -89.1345 19.6615 -10.6489 -55.1244 22.8486 -9.73031 -12.898 -2.88268 -4.87054 -9.8557 
-43.3971 91.4952 25.4892 84.4716 -26.9746 83.7918 -169.572 -6.29858 97.7175 -26.3952 22.5525 1.21807 74.6454 13.7178 2.36099 48.3064 5.89986 11.57 -175.082 52.1002 91.2801 -98.2437 4.18105 -4.77049 84.3663 -16.1312 -6.1622 12.0848 2.94416 9.51471 -1.01765 8.06827 -88.8554 10.7477 -1.4986 2.41477 -0.924786 -1.3909 2.47834 -23.4551 -2.15493 1.85297 -3.4425 -2.15493 1.85296 93.7991 -19.2806 -102.61 37.9143 10.7325 75.2524 -77.2884 -22.8544 -86.1201 -37.8187 15.8426 -50.058 -83.6395 -28.8674 85.3897 -20.8324 -27.8479 -8.19044 50.7522 -4.33288 -95.579 20.7801 -11.7576 -57.3985 23.2983 -5.13418 -13.0552 -5.11254 -0.169875 -8.38492 
-37.0882 92.9587 31.8138 84.2072 -29.7799 86.5263 -168.007 -13.1988 101.501 -17.6151 24.7393 1.82644 59.3166 3.67115 5.85076 55.3506 10.1337 9.64774 -172.992 54.3467 92.3819 -87.1267 3.61841 -5.21859 84.1862 -14.6633 -4.80651 13.4632 2.49233 9.41786 -1.69208 7.96556 -89.3592 10.9655 -3.07186 1.56688 -0.702944 -2.99993 1.70063 -23.2656 -3.40065 0.570346 -3.25292 -3.40064 0.570348 95.5984 -15.0093 -99.7966 36.1263 11.7183 81.2983 -81.8641 -20.1101 -88.5383 -35.2455 15.7786 -53.1007 -82.6665 -21.2252 86.0048 -21.8871 -30.5564 -0.00811675 47.0119 -10.5263 -101.071 21.1563 -12.3667 -58.9921 25.6562 -0.810344 -11.8695 -8.40917 4.01493 -7.12806 
-30.1236 94.2795 38.3942 82.982 -33.9705 89.3993 -167.012 -17.4668 103.685 -14.6986 21.7487 3.78435 50.737 -3.6024 3.74572 35.5186 2.81092 1.06011 -172.245 54.7806 95.1503 -74.3143 -2.03347 -5.42223 81.1303 -12.8746 -5.15834 14.2943 3.10338 7.3479 -2.03172 7.91506 -89.9848 11.057 -4.03733 0.418975 -0.607791 -4.01498 0.596551 -23.1922 -3.97628 -0.815755 -3.17954 -3.97628 -0.815756 90.9408 -16.1987 -111.117 36.5251 13.0288 90.707 -67.0332 -19.9217 -83.0252 -38.9117 15.8501 -48.8545 -81.9298 -15.8985 86.6866 -22.7801 -31.4339 5.26887 44.1141 -14.108 -105.623 19.5564 -11.8843 -60.5038 28.2356 2.8563 -11.4343 -11.5007 7.58005 -4.37788 
-22.9886 94.9293 44.9076 80.5698 -37.8577 91.6032 -167.446 -18.3601 104.166 -19.2183 17.9639 5.51551 54.0398 -2.52844 2.6944 10.9449 -7.97761 -2.12617 -173.791 54.4706 98.5394 -61.3712 -8.46769 -4.53672 78.1498 -11.3777 -4.25642 16.9685 2.41821 6.56826 -2.09569 7.92761 -90.6564 11.0051 -4.47591 -0.877792 -0.658325 -4.5102 -0.679573 -23.243 -4.00492 -2.18433 -3.23031 -4.00491 -2.18433 94.4336 -15.5251 -102.565 32.1212 14.0756 91.0637 -64.19 -15.4388 -84.1662 -32.9385 14.8847 -53.6749 -81.8409 -9.88902 85.5377 -22.6617 -30.2491 8.99227 41.3382 -14.9595 -107.839 19.7364 -12.3399 -61.9224 30.3497 5.59176 -11.1619 -12.7952 10.0523 -1.60465 
-16.277 94.6819 51.0067 79.4525 -41.2441 92.1745 -168.787 -18.8904 102.08 -27.8513 15.9847 5.34569 58.9842 1.02707 3.50291 14.1651 -5.77911 -2.88097 -176.234 52.3536 100.235 -50.5161 -14.5653 -2.87923 75.2144 -9.78648 -3.2484 20.6639 1.73015 4.7098 -2.07947 8.01536 -91.0767 10.8111 -4.63759 -1.71129 -0.852478 -4.70838 -1.50515 -23.4291 -3.90884 -3.02732 -3.41643 -3.90883 -3.0273 91.5583 -18.0511 -108.608 37.5709 11.897 91.7942 -48.5447 -13.3472 -79.8212 -37.3897 15.1388 -48.7619 -81.5757 -8.20246 85.8521 -21.8181 -25.0517 6.46095 40.253 -13.3266 -106.617 20.4765 -12.8907 -62.4758 29.6063 8.75085 -7.94458 -9.64492 11.6136 -1.60096 
-9.83095 94.1527 57.0036 80.7688 -44.0003 92.2918 -169.65 -18.2439 98.6833 -39.9896 16.7543 4.1362 58.333 0.261564 4.52313 22.4235 -0.982878 -4.03786 -178.593 48.1823 100.501 -43.9919 -16.277 -1.24381 74.8416 -9.83995 -3.42372 20.0448 1.95404 4.75518 -2.06222 8.17214 -91.313 10.4844 -4.71021 -2.19136 -1.17955 -4.80205 -1.9816 -23.749 -3.83402 -3.50654 -3.73637 -3.83402 -3.50654 90.6052 -22.2124 -108.809 35.0085 11.9692 90.1905 -48.9867 -10.4451 -82.7284 -38.8357 14.6717 -45.9267 -82.1851 -13.7166 85.5725 -20.6923 -17.7656 6.39144 42.6458 -13.1085 -105.264 22.2055 -13.0713 -59.5219 27.6717 12.1423 -1.04433 -6.72156 12.1771 -3.42466 
-3.49773 93.3704 63.1154 83.0079 -46.6232 93.0295 -169.404 -14.9619 96.1052 -55.9636 16.6253 2.70842 58.2824 -0.590263 4.03407 23.7594 1.0913 -6.78736 179.183 42.8677 100.456 -40.9655 -12.7102 0.417166 74.5806 -9.5562 -2.75489 20.2588 1.55582 5.58597 -1.95557 8.34406 -91.3557 10.1384 -4.51459 -2.31179 -1.5264 -4.61194 -2.11058 -24.0889 -3.61137 -3.56226 -4.07625 -3.61137 -3.56226 87.4398 -26.4541 -113.488 33.0752 12.3538 84.1027 -45.3481 -9.3227 -82.5995 -39.7226 15.0797 -46.0383 -83.3852 -21.0033 84.3538 -20.1661 -9.50527 5.42218 44.628 -10.8769 -102.21 22.0186 -12.3016 -57.0419 26.9753 13.8397 1.476 -7.04861 12.8701 -2.96743 
2.84784 92.462 69.4161 85.706 -48.62 95.008 -167.135 -9.32556 96.0629 -73.2811 15.946 1.81614 58.7128 -0.696571 5.1114 20.3863 -0.811016 -6.00251 177.837 36.3673 99.715 -38.9967 -9.24915 1.38145 72.2625 -7.73887 -1.24675 21.0909 1.50991 4.91298 -1.72722 8.55867 -91.4858 9.70449 -4.11495 -2.62398 -1.96222 -4.22639 -2.44019 -24.5097 -3.13659 -3.73925 -4.49708 -3.13659 -3.73925 83.7758 -33.1069 -117.214 23.7167 17.9611 76.8575 -47.9825 -7.84413 -84.8675 -36.9909 15.5809 -50.3727 -85.1809 -30.9846 82.7989 -21.0412 -1.43493 2.81321 47.5965 -5.89461 -96.9989 23.0964 -11.5512 -52.2641 26.6919 14.78 3.88612 -7.70613 12.8854 -2.17277 
